<svg width="22" height="20" viewBox="0 0 22 20"  xmlns="http://www.w3.org/2000/svg">
<path d="M11 19.638H10.986C8.403 19.59 0.950001 12.856 0.950001 6.478C0.950001 3.414 3.475 0.724 6.353 0.724C8.643 0.724 10.183 2.304 10.999 3.454C11.813 2.306 13.353 0.724 15.644 0.724C18.524 0.724 21.048 3.414 21.048 6.479C21.048 12.855 13.594 19.589 11.011 19.636H11V19.638ZM6.354 2.225C4.274 2.225 2.451 4.213 2.451 6.48C2.451 12.22 9.485 18.076 11.001 18.138C12.519 18.076 19.551 12.221 19.551 6.48C19.551 4.213 17.728 2.225 15.648 2.225C13.12 2.225 11.708 5.161 11.696 5.19C11.466 5.752 10.54 5.752 10.309 5.19C10.295 5.16 8.884 2.225 6.355 2.225H6.354Z" />
</svg>
