<svg width="24" height="18" viewBox="0 0 24 18"  xmlns="http://www.w3.org/2000/svg">
<path d="M23.615 12.477C23.145 12.007 22.385 12.007 21.918 12.477L20.592 13.803V4.4C20.592 2.222 18.82 0.449999 16.642 0.449999H11.442C10.779 0.449999 10.242 0.987999 10.242 1.65C10.242 2.312 10.779 2.85 11.442 2.85H16.642C17.496 2.85 18.192 3.545 18.192 4.4V13.803L16.866 12.477C16.396 12.007 15.636 12.007 15.169 12.477C14.702 12.947 14.699 13.707 15.169 14.174L18.543 17.549C18.777 17.782 19.085 17.899 19.393 17.899C19.701 17.899 20.006 17.783 20.241 17.549L23.616 14.173C24.083 13.703 24.083 12.943 23.614 12.476L23.615 12.477ZM12.562 15.5H7.362C6.508 15.5 5.812 14.805 5.812 13.95V4.547L7.138 5.873C7.372 6.108 7.68 6.225 7.986 6.225C8.292 6.225 8.6 6.108 8.836 5.873C9.304 5.403 9.304 4.643 8.836 4.176L5.46 0.799999C4.99 0.331999 4.23 0.331999 3.763 0.799999L0.388 4.177C-0.0820004 4.647 -0.0820004 5.407 0.388 5.874C0.858 6.341 1.618 6.344 2.085 5.874L3.41 4.547V13.95C3.41 16.128 5.183 17.9 7.36 17.9H12.56C13.224 17.9 13.76 17.362 13.76 16.7C13.76 16.038 13.225 15.5 12.562 15.5Z" />
</svg>
